# xmcd
#
# Track frame offsets: 
#        150
#        12840
#        35422
#        81137
#        99546
#        120777
#        138833
#        156197
#        199700
#        221632
#        255682
#
# Disc length: 3872 seconds
#
# Revision: 0
# Processed by: cddbd v1.5.2PL0 Copyright (c) Steve Scherf et al.
# Submitted via: ExactAudioCopy v1.2
#
DISCID=870f1e0b
DTITLE=Guitar Crusher and Blossbluez - Cooking Live
DYEAR=2018
DGENRE=Blues
TTITLE0=Help Me (Live)
TTITLE1=Messin' with the Kid (Live)
TTITLE2=Stormy Monday (Live)
TTITLE3=Kansas City (Live)
TTITLE4=Heartfixing Man (Live)
TTITLE5=My Uncle Bill (Live)
TTITLE6=Soulfood (Live)
TTITLE7=The Thrill Is Gone (Live)
TTITLE8=It Hurts Me Too (Live)
TTITLE9=Message to Man (Live)
TTITLE10=Caledonia (Live)
EXTD=
EXTT0=
EXTT1=
EXTT2=
EXTT3=
EXTT4=
EXTT5=
EXTT6=
EXTT7=
EXTT8=
EXTT9=
EXTT10=
PLAYORDER=
